<?xml version="1.0" encoding="utf-8"?>
<!-- Generator: Adobe Illustrator 25.0.0, SVG Export Plug-In . SVG Version: 6.00 Build 0)  -->
<svg version="1.1" id="Ebene_1" xmlns="http://www.w3.org/2000/svg" xmlns:xlink="http://www.w3.org/1999/xlink" x="0px" y="0px"
	 viewBox="0 0 587.3 174" style="enable-background:new 0 0 587.3 174;" xml:space="preserve">
<style type="text/css">
	.st0{fill:#987466;}
	.st1{fill:#EBF3F6;}
	.st2{fill:#945E41;}
	.st3{fill:#84B5C1;}
	.st4{fill:#784935;}
	.st5{fill:#DA5515;}
	.st6{fill:#8A3B3B;}
	.st7{fill:#65A9BC;}
	.st8{fill:#75777E;}
	.st9{fill:#C54517;}
	.st10{fill:#B87D1E;}
	.st11{fill:#F1B55B;}
</style>
<g>
	<path class="st0" d="M155.11,9.27c1.17-1.6,3.08-2.34,4.79-3.19c5.21-2.66,10.74-4.04,16.7-4.25c0.32,0,0.74,0,1.06,0.11
		c0.21,0,0.65,0.72,1.08,0.93c-2.34,0.64-4.69,0.56-6.72,1.41c-3.3,1.38-6.38,3.08-8.83,5.74c-0.96,0.96-1.81,1.28-3.08,0.64
		C158.61,9.91,156.81,9.7,155.11,9.27L155.11,9.27z"/>
	<path class="st1" d="M131.9,68.7c-0.7-1.9-1.9-3.5-3.2-4.9c-4.3-4.5-9-8.7-15-10.9c-3.4-1.2-7-1.7-10.6-2.1
		c-3.7-0.4-7.1-1.5-10.2-3.5c-3.6-2.4-7.7-3.5-12-3.5c2.3-1.3,25.3-10.5,27.7-10.6c5.3-0.9,10.1-3.1,14.9-5.5
		c5.4-2.7,10.2-6.6,14.9-10.4c1.3-1.1,2.7-2,4.1-2.9c0.6,0,1.2-0.1,1.7-0.1c3.4-0.2,6.7-0.5,10,0.8c3.4,1.3,7.33,1.76,10.53,3.56
		c3.5,2,7.08,4.31,8.68,8.31c0.8-0.1,0.09,0.73-0.31,0.73c0.1,0.1,0.2,0,0.3,0.1s-0.4,0.3-0.3,0.4c-0.4,0.8-0.46,1.94-1.16,2.54
		c-3.6,3.4-6.69,6.82-9.59,10.92c-3.6,5-6.94,10.04-8.04,16.24c-0.9,4.9-0.25,9.8-0.55,14.8c-0.2,4.5-0.42,9.12-1.62,13.52
		c-0.3,1.1-0.64,2.98-2.04,3.38c-1.6-1.5-3.7-3.8-5.3-5.2c-3.2-2.9-6.9-5.3-9.2-9.2C134.5,72.8,133.2,70.8,131.9,68.7z"/>
	<path class="st2" d="M173.2,28c-0.7-1.4-1.6-2.7-2.7-3.8c-1.8-2-4-3.6-6.4-4.8c-2.4-1.3-4.9-2.5-7.5-3.4c-0.6-0.2-1.2-0.4-1.8-0.6
		c-0.1,0-0.3-0.1-0.4-0.1c-3.8-1-8.21-0.9-12.21-0.7c4.3-3.2,9.01-6.9,13.81-9.4c4.7-2.5,9.8-4.5,15.2-5.1C175-0.3,179.1,0,182,2.4
		c1.8,1.5,3,3.6,3.7,5.9c1.7,5.3,0.9,11.1-1.2,16.2c-2.1,5.1-5.8,9.6-9.3,13.8c0-0.5,0.1-1.3-0.1-1.8c-0.4-1.4-0.3-2.9-0.6-4.4
		C174.3,30.7,173.8,29.3,173.2,28z M155.8,9.1c1.6,0.4,3.2,0.6,4.7,1.3c1.2,0.6,2.1,0.3,2.9-0.6c2.3-2.5,5.2-4.1,8.3-5.4
		c1.9-0.8,3.8-1.3,6-1.9c-0.4-0.2-0.6-0.3-0.7-0.3c-0.3,0-0.7-0.1-1-0.1c-5.5,0.2-10.7,1.5-15.7,4C158.7,6.9,157,7.6,155.8,9.1
		L155.8,9.1L155.8,9.1z"/>
	<path class="st3" d="M152.23,95.26c1.05-2.42,4.57-9.26,5.17-11.76c1.4-6.1,1.9-12,2.4-18.2c0.4-5.1,2.5-10.1,5.5-14.3
		c1.6-2.3,3.8-4.2,5.4-6.5c0.8-1.1,3.23-4.42,4.5-6.2c1-2-0.3-4.5-0.6-6.8c-0.2-1.4-0.33-2.75-1.53-3.75
		c-0.4,0.8-1.17,1.45-1.77,2.05c-3.6,3.4-6.9,7.1-9.8,11.2c-3.6,5-6.7,10.3-7.8,16.5c-0.9,4.9-0.3,9.9-0.6,14.9
		c-0.2,4.5-0.4,9-1.6,13.4c-0.3,1.1-0.6,1.9-1.2,3.4c0.1,0.3-0.2-0.1-0.1,0.2c0.1,0.2,0.66,2.36,0.66,2.46L152.23,95.26z"/>
	<path class="st4" d="M183.44,26.77c0.57-1.12,1.09-2.27,1.53-3.45c1.9-5.08,3.2-13.5-0.61-18.1c-1-0.6-0.96,1.39-0.96,1.79
		c-0.1,4.1-1.3,7.8-3,11.5c-0.3,0.6-0.6,1.3-1,1.9c-0.7,1.2-1.7,2.2-2.7,3.2s-1.9,2-2.8,3c0,0-0.83,1.15-0.83,1.15
		c0.9,2.93,3.21,7.44,2.13,10.55c1.56-1.88,3.98-4.79,5.36-6.77C181.62,30.01,182.59,28.42,183.44,26.77z"/>
	<path class="st5" d="M86.9,106.3L86.9,106.3L86.9,106.3z"/>
	<path class="st6" d="M66.6,131c0.9-1.4,2.4-2.4,3.7-3.4c1.4-1,3.06-2.25,3.86-3.75c0.2,1.1-0.46,2.35-0.56,3.45
		c-0.5,4.1,2.61,6.92,5.51,9.22c-1.33-0.44-2.72-0.55-4.01-1.1C72.2,134.16,69.04,133.09,66.6,131z"/>
	<path class="st7" d="M33.1,160.7c0.1-0.1,0.3-0.2,0.4-0.3C33.4,160.6,33.3,160.6,33.1,160.7z"/>
	<path class="st8" d="M119.5,49c0.1,0.2,0.2,0.4,0.3,0.5C119.7,49.4,119.6,49.2,119.5,49z"/>
	<path class="st8" d="M155.8,9.1L155.8,9.1L155.8,9.1z"/>
	<path class="st5" d="M80.9,43.8L80.9,43.8C81,43.8,81,43.8,80.9,43.8L80.9,43.8z"/>
	<path class="st5" d="M150.3,89.2c-0.1-0.1-0.5-0.5-0.6-0.6c-1.1-1.3-2.5-2.4-3.8-3.5c-1.3-1.2-2.6-2.3-3.9-3.5
		c-1.3-1.1-2.5-2.2-3.8-3.4c-1-0.9-1.9-2.2-2.6-3.4c-1.2-2.1-2.5-4.1-3.7-6.1c-0.7-1.9-1.9-3.5-3.2-4.9c-4.3-4.5-9-8.7-15-10.9
		c-3.4-1.2-7-1.7-10.6-2.1c-3.7-0.4-7.1-1.5-10.2-3.5c-3.6-2.4-7.7-3.5-12-3.5c0,0-3,1.8-4.1,2.6c-5.4,4.1-10.1,9.2-15.3,13.6
		c-3.5,3-6.9,6.1-10.4,9c-3.8,3.2-7.8,6.3-11.7,9.4c-2.1,1.7-4.3,3.3-6,5.3c-1.5,1.7-2.6,3.7-2.8,6.1c-0.2,2,0.2,4.1,1.1,6
		c0.1,0.1,0.1,0.3,0.2,0.4c1.5,2.9,3.9,5.2,5.6,7.9c1.7,2.7,2.8,5.9,4.5,8.6c0.9,1.4,1.9,2.6,3,3.8c0.8,0.8,2.1,2.8,3.2,3
		c0.8,0.2,1.4-0.7,1.9-1.2c1.9-1.7,3.8-3.4,5.6-5.1c1-0.9,2.1-0.7,3.3-0.3c2.4,0.8,4.3,2.2,6.6,3.1c2,0.7,4.3,1.9,6.4,2.2
		c1.9,0.3,4.1,0.6,6.1,0.6c2.6-0.1,5.6-0.9,8.1-1.6c1.4-0.4,2.4-1.7,3.8-2.3c1.3-0.6,2.8,1.7,1.9,0.1c0.9,0.4,0.8,0.9,0.9,1.9
		c0.5,0.2,1,0.6,0.9,1.1c0.7,1,1.3-0.3,2.1,0.6c3.8,4,7.1,8,11.5,11.2c0.6,0.2,1.5,0.9,1.6,1.5c1.1,0.6,1.8-1.2,2.3-1.7
		c7.6-7.7,15.1-15.4,22.7-23.1c4.5-4.6,9.4-8.8,13.7-13.6C147.4,92.8,150.9,90.2,150.3,89.2z"/>
	<path class="st9" d="M91.9,112.4c-1.3-2-2.8-3.9-4.6-5.5c-2.3-2.1-4.8-4.1-7.4-5.9c-6.5-4.7-13.3-8.2-21.1-10
		c-3.3-0.7-6.7-1.3-9.9-2.7c-4.6-2-9.2-4.5-14.4-4.5c-1.5,0-2.8,2.1-3.2,3.3c-1,3-0.7,6.3,0.7,9.1c1.5,2.9,3.9,5.2,5.6,7.9
		c1.7,2.7,2.8,5.9,4.5,8.6c0.9,1.4,1.9,2.6,3,3.8c0.8,0.8,2.81,3.72,3.91,3.92c0.8,0.2,0.94-1.32,1.44-1.82
		c1.9-1.7,3.55-3.7,5.35-5.4c0.4-0.4,0.9-0.6,1.3-0.6c3,1.7,6,3.4,8.9,5.1c1.5,0.9,3,1.7,4.6,2.6c0.5,0.3,2.4,1.4,3.3,1.8
		c0,0,0.1,0.5,0.1,1c0,0.4,0.1,0.9,0.1,1.3c0,0.5,0,0.6-0.1,1c-0.3,1.2-0.9,1.8-0.8,3c0,1,0.2,2.1,0.6,3
		c0.44,1.05,1.11,1.99,1.87,2.82c0.72,0.79,1.56,1.74,2.59,2.05c2.54,0.76,5.11,1.35,7.74,1.69c1.75,0.23,3.52,0.34,5.27,0.58
		c3.03,0.41,5.96,1.22,8.82,2.3c2.32,0.88,5.21,1.59,7.62,0.66c1.3-0.5,2.2-1.5,3.2-2.5c2.39-2.39,4.66-4.92,7-7.36
		c2.35-2.45,4.71-4.9,7.08-7.33c2.37-2.44,4.75-4.86,7.13-7.28c2.39-2.42,4.78-4.83,7.18-7.24c2.37-2.37,4.79-4.69,7.12-7.1
		c0.64-0.66,1.25-1.34,1.84-2.05c0.64-0.76,1.24-1.54,1.85-2.32c0.53-0.68,1.05-1.36,1.59-2.03c0.22-0.27,0.26-0.72,0.54-1.03
		c0.57-0.62-1.65-6.09-1.93-6.06c-0.28,0.03-0.47,0.47-0.6,0.6c-12.8,13.3-25.6,26.4-38.9,39.1c-0.3,0.3-0.7,0.6-1.1,0.8
		c-0.7,0.2-1.5-0.2-2.1-0.7c-1.4-1.2-2.7-2.5-4.2-3.6c-1.7-1.4-3.4-2.8-5.1-4.4c-2.2-2.1-3.8-4.7-5.5-7.2
		C92.6,113.5,92.2,112.9,91.9,112.4z"/>
	<path class="st9" d="M86.9,106.3L86.9,106.3L86.9,106.3z"/>
	<path class="st10" d="M2.4,169.3c1,0.7,2.5,1.7,2.7,1.8c1.4,0.7,3.1,0.6,4.7,0.8c3.3,0.4,6-0.5,8.7-2.3
		c7.9-5.1,14.7-11.6,21.7-17.9c7.4-6.6,14.9-13,22.4-19.4c0.3-0.3,0.6-0.5,0.9-0.8c3.5-3,7-6.4,10.5-9.4c0.4,0.8,0.2,2.3-0.3,3.1
		s-1.3,1.4-2,1.9c-14.9,11.6-28.2,25-42.6,37.1c-3.2,2.7-6.5,5.2-10.1,7.3c-2.73,1.6-5.85,2.53-9.02,2.53
		c-1.12,0-2.23-0.13-3.31-0.43c-1.48-0.41-2.77-1.12-3.95-2.1c-0.22-0.18-0.43-0.37-0.64-0.57c-0.94-0.94-1.39-2.06-1.75-3.31
		c-0.15-0.51-0.27-1.02-0.34-1.55c-0.04-0.32-0.11-0.72,0.02-1.02C0.31,165.15,2.1,169.1,2.4,169.3z"/>
	<path class="st11" d="M57.2,112.6c5.6,3.2,11.2,6.3,16.8,9.5c-0.1,0.7-0.7,1.1-1.2,1.5c-9,7.6-18.2,15.4-27.1,23.3
		c-4.6,4-9.1,8.1-13.5,12.2c-4.1,3.8-8.2,7.9-13.1,10.8c-5.5,3.2-12,3.6-17.1-0.7c-2.1-1.8-2.6-4.5-1.2-6.8c0.8-1.4,2.1-2.4,3.4-3.4
		c15.3-12.4,29.6-26.1,44.3-39.1c1.5-1.3,3-2.7,4.5-4C53.8,115.1,55.9,112.4,57.2,112.6z"/>
	<path class="st1" d="M258.9,49.6c0.2,1.1,0.7,2.2,1.5,3.3s1.2,1.9,1.2,2.5v0.3c0,0.8-0.5,1.3-1.6,1.3h-13.9c-1.1,0-1.6-0.4-1.6-1.3
		v-0.3c0-0.4,0.4-1.2,1.3-2.4c0.9-1.1,1.2-2.3,1-3.5l-4-23.4l-10.3,28.7c-0.4,1.3-1.3,1.9-2.4,1.9c-1.3,0-2.2-0.6-2.8-1.9
		l-11.7-29.9L212,49.6c-0.2,1.2,0.2,2.3,1.1,3.4c0.9,1.1,1.3,1.9,1.3,2.4v0.3c0,0.8-0.5,1.3-1.6,1.3h-8.3c-1.1,0-1.6-0.4-1.6-1.3
		v-0.3c0-0.6,0.4-1.4,1.2-2.5s1.3-2.2,1.5-3.3l5.1-32.8c0.2-1.2-0.2-2.3-1.2-3.4s-1.4-1.9-1.4-2.4v-0.3c0-0.8,0.5-1.3,1.5-1.3h8.8
		c1.8,0,3,0.8,3.6,2.4l9.7,28.4l9.4-28.3c0.6-1.7,1.8-2.5,3.5-2.5h9.1c1,0,1.5,0.4,1.5,1.3V11c0,0.4-0.5,1.3-1.5,2.4
		c-1,1.2-1.4,2.3-1.1,3.6L258.9,49.6z"/>
	<path class="st1" d="M281.3,57.6c-5.2,0-9.6-1.6-13.2-4.8s-5.4-7.2-5.4-12s1.8-8.8,5.4-12s7.8-4.7,12.7-4.7c5.1,0,9.4,1.6,13,4.8
		s5.4,7.2,5.4,12.1c0,4.8-1.7,8.8-5.2,12C290.4,56,286.2,57.6,281.3,57.6z M282.7,54.3c2.9,0,4.3-2.7,4.3-8.2c0-2-0.3-4.4-0.8-7.2
		c-0.6-2.8-1.5-5.4-2.8-7.8c-1.3-2.5-2.8-3.7-4.4-3.7s-2.7,0.7-3.3,2.1c-0.7,1.4-1,3.5-1,6.3c0,1.5,0.2,3.2,0.5,5.2
		c0.4,2,0.8,4,1.5,6.1c0.6,2,1.5,3.8,2.6,5.2C280.3,53.6,281.4,54.3,282.7,54.3z"/>
	<path class="st1" d="M324.8,24.1c1.9,0,3.5,0.6,4.6,1.9s1.7,2.8,1.7,4.8c0,4.2-1.7,6.3-5.2,6.3c-1.4,0-2.4-0.3-3.1-1
		c-0.7-0.6-1.1-1.4-1.2-2.2s-0.3-1.5-0.7-2.2c-0.4-0.6-0.9-1-1.6-1c-1.7,0-2.5,2.1-2.5,6.4v12.5c0,1.1,0.6,2.2,1.8,3.3
		c1.2,1.1,1.8,1.9,1.8,2.4v0.3c0,0.8-0.5,1.3-1.6,1.3h-14.4c-1.1,0-1.6-0.4-1.6-1.3v-0.3c0-0.5,0.4-1.4,1.3-2.4
		c0.9-1.1,1.3-2.2,1.3-3.3V36.3c0-0.9-0.3-1.7-0.8-2.3s-1.1-1.2-1.6-1.6c-0.5-0.4-0.8-0.9-0.8-1.5v-0.2c0-0.8,0.5-1.4,1.5-1.9
		l9.4-4.4c0.9-0.3,1.5-0.3,1.9-0.1c0.4,0.3,0.5,0.8,0.5,1.5v4.9C317,26.3,320.1,24.1,324.8,24.1z"/>
	<path class="st1" d="M359.8,46.3c0.5-0.5,1-0.6,1.6-0.4c0.6,0.2,0.9,0.7,0.8,1.4c-0.1,2.2-1.4,4.5-3.9,6.8s-5.7,3.5-9.7,3.5
		c-4.9,0-8.8-1.6-11.9-4.7c-3.1-3.1-4.6-7.2-4.6-12.3c0-4.8,1.6-8.8,4.9-11.9c3.2-3.1,7.1-4.7,11.6-4.7c4.1,0,7.2,0.9,9.4,2.8
		c2.2,1.9,3.3,4,3.3,6.4c0,1.9-0.9,3.3-2.6,4.2l-13.3,7.5c1.8,2.9,4.4,4.4,7.6,4.4c1.4,0,2.7-0.3,3.9-0.8
		C358.2,47.9,359.2,47.2,359.8,46.3z M347.4,27.4c-1.3,0-2.4,0.7-3.2,2c-0.8,1.3-1.2,3-1.2,5c0,2.7,0.3,5,1,7l6.2-3.8
		c1.2-0.8,1.7-1.9,1.7-3.4s-0.4-3-1.1-4.6C350,28.2,348.9,27.4,347.4,27.4z"/>
	<path class="st1" d="M396.9,49.6c0.1,1.1,0.4,1.9,0.8,2.6c0.4,0.6,0.8,1.1,1.1,1.2c0.4,0.2,0.7,0.4,1,0.7s0.5,0.6,0.5,1
		c0,1.5-2.5,2.2-7.6,2.2c-2.1,0-3.6-0.2-4.6-0.7s-1.6-1.3-1.9-2.5c-1.7,2.3-4.5,3.5-8.5,3.5c-3.8,0-6.8-0.9-9.1-2.6
		c-2.3-1.7-3.5-4.3-3.5-7.6c0-3.2,1.2-5.7,3.5-7.5s5.2-2.7,8.6-2.7c2.6,0,4.9,0.6,6.8,1.7v-0.2c-0.4-4.4-0.9-7.4-1.5-9
		s-1.6-2.3-3.2-2.3c-1,0-1.9,0.5-2.5,1.4s-1.1,2-1.4,3.1c-0.3,1.1-0.8,2.1-1.6,3.1c-0.8,0.9-1.9,1.4-3.2,1.4c-1.4,0-2.5-0.4-3.4-1.2
		s-1.3-1.9-1.3-3.1c0-2.6,1.3-4.5,3.9-5.9c2.6-1.3,5.8-2,9.5-2c4.5,0,8.2,1.2,11.1,3.7c2.9,2.4,4.7,5.7,5.2,9.9L396.9,49.6z
		 M381.4,54.2c1,0,1.9-0.5,2.5-1.5s1-2.1,1-3.4l-0.3-3.1c-0.4-3.7-1.8-5.6-4.2-5.6c-1,0-1.9,0.4-2.5,1.2s-0.9,1.9-0.9,3.3
		c0,2.5,0.4,4.6,1.2,6.3C379,53.3,380.1,54.2,381.4,54.2z"/>
	<path class="st3" d="M206.3,124.9c-1.1,0-1.6-0.4-1.6-1.3v-0.3c0-0.5,0.4-1.4,1.3-2.4c0.9-1.1,1.3-2.2,1.3-3.3v-33
		c0-1.1-0.4-2.2-1.3-3.3c-0.9-1.1-1.3-1.9-1.3-2.4v-0.3c0-0.8,0.5-1.3,1.6-1.3H223c6.5,0,11.7,1.3,15.5,3.9s5.8,6.6,5.8,12
		c0,5-1.7,9.1-5.2,12.1s-8.1,4.5-13.9,4.5h-5.6v7.8c0,1.1,0.5,2.2,1.5,3.3c1,1.1,1.5,1.9,1.5,2.4v0.3c0,0.8-0.5,1.3-1.6,1.3
		L206.3,124.9z M222.7,105.2h2.5c2.1,0,3.7-0.9,4.9-2.6s1.7-3.9,1.7-6.5c0-4.2-0.9-7.5-2.7-10.2S225.2,82,223,82h-1
		c-1.6,0-2.4,1.1-2.4,3.2V102C219.6,104.1,220.7,105.2,222.7,105.2z"/>
	<path class="st3" d="M269.3,92.1c1.9,0,3.5,0.6,4.6,1.9s1.7,2.8,1.7,4.8c0,4.2-1.7,6.3-5.2,6.3c-1.4,0-2.4-0.3-3.1-1
		c-0.7-0.6-1.1-1.4-1.2-2.2s-0.3-1.5-0.7-2.2c-0.4-0.6-0.9-1-1.6-1c-1.7,0-2.5,2.1-2.5,6.4v12.5c0,1.1,0.6,2.2,1.8,3.3
		c1.2,1.1,1.8,1.9,1.8,2.4v0.3c0,0.8-0.5,1.3-1.6,1.3h-14.4c-1.1,0-1.6-0.4-1.6-1.3v-0.3c0-0.5,0.4-1.4,1.3-2.4
		c0.9-1.1,1.3-2.2,1.3-3.3v-13.3c0-0.9-0.3-1.7-0.8-2.3c-0.5-0.6-1.1-1.2-1.6-1.6s-0.8-0.9-0.8-1.5v-0.2c0-0.8,0.5-1.4,1.5-1.9
		l9.4-4.4c0.9-0.3,1.5-0.3,1.9-0.1c0.4,0.3,0.5,0.8,0.5,1.5v4.9C261.6,94.3,264.7,92.1,269.3,92.1z"/>
	<path class="st3" d="M295.2,125.6c-5.2,0-9.6-1.6-13.2-4.8c-3.6-3.2-5.4-7.2-5.4-12s1.8-8.8,5.4-12s7.8-4.7,12.7-4.7
		c5.1,0,9.4,1.6,13,4.8c3.6,3.2,5.4,7.2,5.4,12.1c0,4.8-1.7,8.8-5.2,12C304.4,124,300.2,125.6,295.2,125.6z M296.6,122.3
		c2.9,0,4.3-2.7,4.3-8.2c0-2-0.3-4.4-0.8-7.2c-0.6-2.8-1.5-5.4-2.8-7.8c-1.3-2.5-2.8-3.7-4.4-3.7s-2.7,0.7-3.3,2.1
		c-0.7,1.4-1,3.5-1,6.3c0,1.5,0.2,3.2,0.5,5.2c0.4,2,0.8,4,1.5,6.1c0.6,2,1.5,3.8,2.6,5.2C294.2,121.6,295.4,122.3,296.6,122.3z"/>
	<path class="st3" d="M350.2,117.6c0,1.1,0.4,2.2,1.3,3.3c0.9,1.1,1.3,1.9,1.3,2.4v0.3c0,0.8-0.5,1.3-1.5,1.3h-9.6
		c-1.2,0-1.7-0.6-1.7-1.7v-0.6c-2.1,2-4.8,2.9-8.2,2.9c-4.3,0-8.1-1.5-11.2-4.5s-4.7-7.1-4.7-12.3c0-4.9,1.6-8.9,4.7-12
		s6.9-4.7,11.2-4.7c2.7,0,5,0.6,6.9,1.9V85c0-0.9-0.3-1.7-0.9-2.3c-0.6-0.6-1.2-1.2-1.8-1.7c-0.6-0.5-0.9-1-0.9-1.5v-0.2
		c0-0.8,0.5-1.4,1.5-1.7l10.5-3.1c2-0.6,2.9-0.1,2.9,1.6v41.5H350.2z M334.5,122.3c1.2,0,2.2-0.4,3-1.5c0.8-1,1.2-2.4,1.2-4.2v-12.9
		c0-2.1-0.6-4.1-1.8-5.8c-1.2-1.7-2.6-2.6-4.2-2.6c-3.3,0-5.1,2.7-5.3,8.2c-0.1,2.1,0.1,4.5,0.6,7.3s1.3,5.3,2.4,7.7
		C331.6,121.1,333,122.3,334.5,122.3z"/>
	<path class="st3" d="M390,117.6c0,1.2,0.1,2.1,0.4,2.7s0.6,1,1,1c0.4,0.1,0.7,0.2,1,0.5s0.4,0.7,0.4,1.3c0,0.8-0.6,1.4-1.7,1.7
		c-1.1,0.3-2.9,0.5-5.2,0.5c-2.1,0-3.6-0.3-4.6-0.9s-1.5-1.6-1.7-3c-1.8,2.8-4.9,4.2-9.4,4.2c-3.6,0-6.6-1.2-8.9-3.5
		s-3.6-5.6-3.6-9.7v-11.2c0-1.2-0.4-2.3-1.3-3.4s-1.3-1.8-1.3-2.3v-0.3c0-0.9,0.5-1.4,1.5-1.5l10-1.3c2.1-0.3,3.1,0.2,3.1,1.3
		l-0.2,19.8c0,2.7,0.3,4.6,1,5.8c0.7,1.2,1.8,1.8,3.3,1.8c1.2,0,2.3-0.6,3.1-1.8c0.8-1.2,1.3-2.8,1.3-4.9v-13.3
		c0-1.2-0.4-2.3-1.3-3.4s-1.3-1.8-1.3-2.3v-0.3c0-0.9,0.5-1.4,1.5-1.5l10-1.3c2-0.3,2.9,0.2,2.9,1.3L390,117.6L390,117.6z"/>
	<path class="st3" d="M412.7,125.6c-5.1,0-9.3-1.7-12.5-5c-3.3-3.3-4.9-7.3-4.9-11.8c0-5,1.7-9.1,5-12.1s7.3-4.5,12.1-4.6
		c4,0,7.3,0.9,10.1,2.7c2.8,1.9,4.2,4.3,4.2,7.2c0,1.1-0.4,2.1-1.2,2.8c-0.8,0.8-2,1.1-3.7,1.1c-1.5-0.1-2.8-0.7-3.9-1.8
		c-1.1-1.1-1.9-2.3-2.4-3.6c-0.5-1.3-1.2-2.5-2-3.5s-1.8-1.6-2.9-1.6c-1.4,0-2.5,0.8-3.4,2.2c-0.9,1.4-1.3,3.2-1.3,5.3
		c0,4.4,1,7.9,3,10.5s4.6,4,7.9,4c3,0,5.5-1.3,7.4-3.9c0.4-0.5,1-0.7,1.6-0.6c0.6,0.2,0.9,0.6,0.9,1.3c-0.1,3.1-1.4,5.8-3.8,8
		C420.4,124.5,417.1,125.6,412.7,125.6z"/>
	<path class="st3" d="M443.7,125.6c-3.4,0-6.1-1.1-8-3.2s-2.9-5.2-2.9-9.2V97.3h-2.5c-0.4,0-0.8-0.1-1.1-0.4
		c-0.3-0.3-0.4-0.7-0.4-1.1v-1.5c0-1,0.5-1.5,1.5-1.5h1.3c2.1,0,3.8-0.6,5.3-1.8c1.5-1.2,2.4-2.9,2.9-4.9c0.2-1.2,0.8-1.7,1.8-1.7
		h1.5c1.2,0,1.8,0.6,1.8,1.7v6.8h6.9c0.4,0,0.8,0.1,1.1,0.4c0.3,0.3,0.4,0.7,0.4,1.1v1.5c0,0.4-0.1,0.8-0.4,1.1
		c-0.3,0.3-0.7,0.4-1.1,0.4h-6.9v16.1c0,1.1,0.3,2,0.9,2.6s1.3,1,2.1,1c1.9,0,3.4-0.8,4.4-2.5c0.3-0.4,0.7-0.6,1.1-0.7s0.7,0,1,0.2
		s0.4,0.5,0.4,0.9c0,2.8-1,5.3-3,7.4C449.8,124.5,447.1,125.6,443.7,125.6z"/>
	<path class="st3" d="M458.6,124.9c-1.1,0-1.6-0.4-1.6-1.3v-0.3c0-0.5,0.4-1.4,1.3-2.5s1.3-2.2,1.3-3.4v-12.7c0-1.2-0.4-2.3-1.3-3.4
		s-1.3-1.8-1.3-2.2v-0.3c0-0.5,0.5-1,1.5-1.5l10.1-5c0.9-0.4,1.7-0.4,2.2-0.1s0.8,0.8,0.8,1.5v23.7c0,1.1,0.5,2.2,1.5,3.4
		s1.5,1.9,1.5,2.5v0.3c0,0.8-0.6,1.3-1.7,1.3H458.6z M465.7,88.8c-2.3,0-4.1-0.6-5.6-1.9c-1.4-1.3-2.1-2.9-2.1-4.8s0.7-3.5,2.1-4.8
		s3.3-1.9,5.6-1.9c2.2,0,4.1,0.6,5.5,1.9s2.1,2.9,2.1,4.8s-0.7,3.5-2.1,4.8C469.8,88.2,468,88.8,465.7,88.8z"/>
	<path class="st3" d="M495.8,125.6c-5.2,0-9.6-1.6-13.2-4.8c-3.6-3.2-5.4-7.2-5.4-12s1.8-8.8,5.4-12s7.8-4.7,12.7-4.7
		c5.1,0,9.4,1.6,13,4.8c3.6,3.2,5.4,7.2,5.4,12.1c0,4.8-1.7,8.8-5.2,12C505,124,500.8,125.6,495.8,125.6z M497.2,122.3
		c2.9,0,4.3-2.7,4.3-8.2c0-2-0.3-4.4-0.8-7.2c-0.6-2.8-1.5-5.4-2.8-7.8c-1.3-2.5-2.8-3.7-4.4-3.7s-2.7,0.7-3.3,2.1
		c-0.7,1.4-1,3.5-1,6.3c0,1.5,0.2,3.2,0.5,5.2c0.4,2,0.8,4,1.5,6.1c0.6,2,1.5,3.8,2.6,5.2C494.8,121.6,496,122.3,497.2,122.3z"/>
	<path class="st3" d="M553.2,117.6c0.1,1.1,0.5,2.2,1.3,3.3c0.8,1.1,1.1,1.9,1.1,2.5v0.3c0,0.8-0.5,1.3-1.6,1.3h-13.4
		c-1.1,0-1.6-0.4-1.6-1.3v-0.3c0-0.5,0.4-1.4,1.3-2.5c0.8-1.1,1.2-2.2,1.1-3.3l-0.7-12c-0.2-3.3-0.6-5.7-1.3-7
		c-0.7-1.4-1.8-2.1-3.3-2.1c-1.4,0-2.5,0.6-3.2,1.7c-0.7,1.2-1.1,2.7-1.1,4.8v14.6c0,1.1,0.5,2.2,1.5,3.3c1,1.1,1.5,1.9,1.5,2.5v0.3
		c0,0.8-0.5,1.3-1.6,1.3h-14.5c-1.1,0-1.6-0.4-1.6-1.3v-0.3c0-0.5,0.5-1.4,1.5-2.5s1.5-2.2,1.5-3.3v-13.2c0-0.9-0.3-1.7-0.9-2.4
		c-0.6-0.6-1.2-1.2-1.8-1.7s-0.9-1-0.9-1.5v-0.2c0-0.6,0.5-1.1,1.6-1.7l9.4-4.6c0.8-0.4,1.5-0.4,1.9,0c0.4,0.3,0.6,0.9,0.6,1.6V97
		c1.9-3.4,5.1-5,9.6-5c3.4,0,6.2,1.1,8.6,3.3s3.8,5.7,4.2,10.7L553.2,117.6z"/>
	<path class="st3" d="M572.7,125.5c-4.3,0-7.8-0.7-10.6-2.2s-4.2-3.3-4.2-5.7c0-1.4,0.4-2.5,1.3-3.2c0.9-0.7,2-1.1,3.5-1.1
		s2.7,0.5,3.6,1.4c0.9,1,1.5,2,1.8,3.1s0.8,2.2,1.6,3.1c0.8,1,1.7,1.4,2.9,1.4c2.4,0,3.6-1.2,3.6-3.7c0-1.6-0.6-2.9-1.8-3.8
		s-2.7-1.7-4.5-2.1c-1.7-0.5-3.5-1-5.2-1.7c-1.7-0.6-3.2-1.7-4.4-3.1c-1.2-1.5-1.8-3.4-1.8-5.8c0-3,1.3-5.4,4-7.3
		c2.6-1.9,6-2.8,10.2-2.8s7.5,0.8,10.2,2.3c2.6,1.6,3.9,3.5,3.9,5.7c0,1.2-0.4,2.1-1.3,2.9c-0.9,0.8-1.9,1.2-3.2,1.2
		c-1.5,0-2.6-0.5-3.5-1.4c-0.8-0.9-1.4-2-1.7-3.1s-0.7-2.2-1.3-3.1s-1.4-1.4-2.4-1.4s-1.8,0.4-2.3,1.1c-0.6,0.8-0.8,1.7-0.8,2.7
		c0,1.7,0.6,3,1.8,4s2.6,1.8,4.3,2.3s3.3,1.1,5,1.7s3.1,1.6,4.3,3s1.8,3.2,1.8,5.5c0,2.9-1.3,5.2-3.9,7.1
		C580.8,124.6,577.2,125.5,572.7,125.5z"/>
</g>
</svg>
