<?xml version="1.0" encoding="utf-8"?>
<!-- Generator: Adobe Illustrator 25.0.0, SVG Export Plug-In . SVG Version: 6.00 Build 0)  -->
<svg version="1.1" id="Ebene_1" xmlns="http://www.w3.org/2000/svg" xmlns:xlink="http://www.w3.org/1999/xlink" x="0px" y="0px"
	 viewBox="0 0 186.81 174" style="enable-background:new 0 0 186.81 174;" xml:space="preserve">
<style type="text/css">
	.st0{fill:#987466;}
	.st1{fill:#EBF3F6;}
	.st2{fill:#945E41;}
	.st3{fill:#84B5C1;}
	.st4{fill:#784935;}
	.st5{fill:#DA5515;}
	.st6{fill:#8A3B3B;}
	.st7{fill:#65A9BC;}
	.st8{fill:#75777E;}
	.st9{fill:#C54517;}
	.st10{fill:#B87D1E;}
	.st11{fill:#F1B55B;}
</style>
<g>
	<path class="st0" d="M150.57,10.24c1.17-1.6,7.03-4.64,8.73-5.49c5.21-2.66,9.18-3.94,15.13-4.16c0.32,0,3.98,0.64,4.3,0.75
		c0.21,0,1.76,1.91,2.19,2.12c-2.34,0.64-4.17,4.97-6.19,5.82c-3.3,1.38-3.08,3.12-5.53,5.78c-0.96,0.96-9.2-1.52-10.48-2.16
		c-1.49-0.74-3.2-0.99-4.9-1.41L150.57,10.24z"/>
	<path class="st1" d="M126.88,73.09c-0.7-1.9,0.19-4.36-1.11-5.76c-4.3-4.5-6.19-8.12-12.19-10.32c-4.33,1.68-7.71-3.91-11.31-4.31
		c-3.7-0.4-9.09-1.19-12.19-3.19c-3.6-2.4-5.14-5.55-9.44-5.55c2.3-1.3,25.56-10.65,27.96-10.75c5.3-0.9,10.1-3.1,14.9-5.5
		c5.4-2.7,10.2-6.6,14.9-10.4c1.3-1.1,2.7-2,4.1-2.9c0.6,0,1.2-0.1,1.7-0.1c3.4-0.2,6.7-0.5,10,0.8c3.4,1.3,7.33,1.76,10.53,3.56
		c3.5,2,7.08,4.31,8.68,8.31c0.8-0.1,0.09,0.73-0.31,0.73c0.1,0.1,0.2,0,0.3,0.1s-0.4,0.3-0.3,0.4c-0.4,0.8-0.46,1.94-1.16,2.54
		c-3.6,3.4-6.69,6.82-9.59,10.92c-3.6,5-6.94,10.04-8.04,16.24c-0.9,4.9-0.25,9.8-0.55,14.8c-0.2,4.5-0.42,9.12-1.62,13.52
		c-0.3,1.1-0.64,2.98-2.04,3.38c-1.6-1.5-6.31,0.29-7.91-1.11c-3.2-2.9-8.91-5.19-11.21-9.09
		C129.88,77.01,128.18,75.19,126.88,73.09z"/>
	<path class="st2" d="M173.2,28c-0.7-1.4-1.6-2.7-2.7-3.8c-1.8-2-4-3.6-6.4-4.8c-2.4-1.3-4.9-2.5-7.5-3.4c-0.6-0.2-1.2-0.4-1.8-0.6
		c-0.1,0-0.3-0.1-0.4-0.1c-3.8-1-8.21-0.9-12.21-0.7c4.3-3.2,9.01-6.9,13.81-9.4c4.7-2.5,9.8-4.5,15.2-5.1C175-0.3,179.1,0,182,2.4
		c1.8,1.5,3,3.6,3.7,5.9c1.7,5.3,0.9,11.1-1.2,16.2c-2.1,5.1-5.8,9.6-9.3,13.8c0-0.5,0.1-1.3-0.1-1.8c-0.4-1.4-0.3-2.9-0.6-4.4
		C174.3,30.7,173.8,29.3,173.2,28z M155.8,9.1c1.6,0.4,3.2,0.6,4.7,1.3c1.2,0.6,2.1,0.3,2.9-0.6c2.3-2.5,5.2-4.1,8.3-5.4
		c1.9-0.8,3.8-1.3,6-1.9c-0.4-0.2-0.6-0.3-0.7-0.3c-0.3,0-0.7-0.1-1-0.1c-5.5,0.2-10.7,1.5-15.7,4C158.7,6.9,157,7.6,155.8,9.1
		L155.8,9.1L155.8,9.1z"/>
	<path class="st3" d="M152.23,95.26c1.05-2.42,4.57-9.26,5.17-11.76c1.4-6.1,1.9-12,2.4-18.2c0.4-5.1,2.5-10.1,5.5-14.3
		c1.6-2.3,3.8-4.2,5.4-6.5c0.8-1.1,3.23-4.42,4.5-6.2c1-2-0.3-4.5-0.6-6.8c-0.2-1.4-0.33-2.75-1.53-3.75
		c-0.4,0.8-1.17,1.45-1.77,2.05c-3.6,3.4-6.9,7.1-9.8,11.2c-3.6,5-6.7,10.3-7.8,16.5c-0.9,4.9-0.3,9.9-0.6,14.9
		c-0.2,4.5-0.4,9-1.6,13.4c-0.3,1.1-0.6,1.9-1.2,3.4c0.1,0.3-0.2-0.1-0.1,0.2c0.1,0.2,0.66,2.36,0.66,2.46L152.23,95.26z"/>
	<path class="st4" d="M183.44,26.77c0.57-1.12,1.09-2.27,1.53-3.45c1.9-5.08,3.2-13.5-0.61-18.1c-1-0.6-0.96,1.39-0.96,1.79
		c-0.1,4.1-1.3,7.8-3,11.5c-0.3,0.6-0.6,1.3-1,1.9c-0.7,1.2-1.7,2.2-2.7,3.2s-1.9,2-2.8,3c0,0-0.83,1.15-0.83,1.15
		c0.9,2.93,3.21,7.44,2.13,10.55c1.56-1.88,3.98-4.79,5.36-6.77C181.62,30.01,182.59,28.42,183.44,26.77z"/>
	<path class="st5" d="M86.9,106.3L86.9,106.3L86.9,106.3z"/>
	<path class="st6" d="M66.6,131c0.9-1.4,2.4-2.4,3.7-3.4c1.4-1,3.06-2.25,3.86-3.75c0.2,1.1-0.12,2.34-0.22,3.44
		c-0.5,4.1,2.27,6.94,5.17,9.24c-1.33-0.44-2.72-0.55-4.01-1.1C72.2,134.16,69.04,133.09,66.6,131z"/>
	<path class="st7" d="M33.1,160.7c0.1-0.1,0.3-0.2,0.4-0.3C33.4,160.6,33.3,160.6,33.1,160.7z"/>
	<path class="st8" d="M119.5,49c0.1,0.2,0.2,0.4,0.3,0.5C119.7,49.4,119.6,49.2,119.5,49z"/>
	<path class="st8" d="M155.8,9.1L155.8,9.1L155.8,9.1z"/>
	<path class="st5" d="M80.9,43.8L80.9,43.8C81,43.8,81,43.8,80.9,43.8L80.9,43.8z"/>
	<path class="st5" d="M150.3,89.2c-0.1-0.1-0.5-0.5-0.6-0.6c-1.1-1.3-2.5-2.4-3.8-3.5c-1.3-1.2-2.6-2.3-3.9-3.5
		c-1.3-1.1-2.5-2.2-3.8-3.4c-1-0.9-1.9-2.2-2.6-3.4c-1.2-2.1-2.5-4.1-3.7-6.1c-0.7-1.9-1.9-3.5-3.2-4.9c-4.3-4.5-9-8.7-15-10.9
		c-3.4-1.2-7-1.7-10.6-2.1c-3.7-0.4-7.1-1.5-10.2-3.5c-3.6-2.4-7.66-3.5-11.96-3.5c0,0-3.04,1.8-4.14,2.6
		c-5.4,4.1-10.1,9.2-15.3,13.6c-3.5,3-6.9,6.1-10.4,9c-3.8,3.2-7.8,6.3-11.7,9.4c-2.1,1.7-4.3,3.3-6,5.3c-1.5,1.7-2.6,3.7-2.8,6.1
		c-0.2,2,0.2,4.1,1.1,6c0.1,0.1,0.1,0.3,0.2,0.4c1.5,2.9,3.9,5.2,5.6,7.9c1.7,2.7,2.8,5.9,4.5,8.6c0.9,1.4,1.9,2.6,3,3.8
		c0.8,0.8,2.1,2.8,3.2,3c0.8,0.2,1.4-0.7,1.9-1.2c1.9-1.7,3.8-3.4,5.6-5.1c1-0.9,2.1-0.7,3.3-0.3c2.4,0.8,4.3,2.2,6.6,3.1
		c2,0.7,4.3,1.9,6.4,2.2c1.9,0.3,4.1,0.6,6.1,0.6c2.6-0.1,5.6-0.9,8.1-1.6c1.4-0.4,2.4-1.7,3.8-2.3c1.3-0.6,2.8,1.7,1.9,0.1
		c0.9,0.4,0.8,0.9,0.9,1.9c0.5,0.2,1,0.6,0.9,1.1c0.7,1,1.3-0.3,2.1,0.6c3.8,4,2.85,11.48,7.25,14.68c0.6,0.2,5.11,0.95,5.21,1.55
		c1.1,0.6,4.82-2.71,5.32-3.21c7.6-7.7,15.68-16.02,23.28-23.72c4.5-4.6,9.21-8.72,13.51-13.52C150.17,94.27,150.9,90.2,150.3,89.2z
		"/>
	<path class="st9" d="M91.9,112.4c-1.3-2-2.8-3.9-4.6-5.5c-2.3-2.1-4.8-4.1-7.4-5.9c-6.5-4.7-13.3-8.2-21.1-10
		c-3.3-0.7-6.7-1.3-9.9-2.7c-4.6-2-9.2-4.5-14.4-4.5c-1.5,0-2.8,2.1-3.2,3.3c-1,3-0.7,6.3,0.7,9.1c1.5,2.9,3.9,5.2,5.6,7.9
		c1.7,2.7,2.8,5.9,4.5,8.6c0.9,1.4,1.9,2.6,3,3.8c0.8,0.8,2.81,3.72,3.91,3.92c0.8,0.2,2.3,1.68,2.8,1.18c1.9-1.7,2.69-5.4,4.49-7.1
		c0.4-0.4,0.45-1.37,0.85-1.37c3,1.7,5.28,3.63,8.18,5.33c1.5,0.9,0.94,2.15,2.54,3.05c0.5,0.3,3.22,1.29,4.12,1.69
		c0,0,0.6,0.14,0.6,0.64c0,0.4,1.52,0.15,1.52,0.55c0,0.5,0,0.6-0.1,1c-0.3,1.2-0.9,1.8-0.8,3c0,1,0.2,2.1,0.6,3
		c0.44,1.05,1.11,1.99,1.87,2.82c0.72,0.79,1.56,1.74,2.59,2.05c2.54,0.76,5.11,1.35,7.74,1.69c1.75,0.23,3.52,0.34,5.27,0.58
		c3.03,0.41,5.96,1.22,8.82,2.3c2.32,0.88,5.21,1.59,7.62,0.66c1.3-0.5,2.2-1.5,3.2-2.5c2.39-2.39,4.66-4.92,7-7.36
		c2.35-2.45,4.71-4.9,7.08-7.33c2.37-2.44,4.75-4.86,7.13-7.28c2.39-2.42,4.78-4.83,7.18-7.24c2.37-2.37,4.79-4.69,7.12-7.1
		c0.64-0.66,1.25-1.34,1.84-2.05c0.64-0.76,1.24-1.54,1.85-2.32c0.53-0.68,1.05-1.36,1.59-2.03c0.22-0.27,0.26-0.72,0.54-1.03
		c0.57-0.62-1.65-6.09-1.93-6.06c-0.28,0.03-0.47,0.47-0.6,0.6c-12.8,13.3-25.6,26.4-38.9,39.1c-0.3,0.3-0.7,0.6-1.1,0.8
		c-0.7,0.2-1.5-0.2-2.1-0.7c-1.4-1.2-2.7-2.5-4.2-3.6c-1.7-1.4-3.4-2.8-5.1-4.4c-2.2-2.1-3.8-4.7-5.5-7.2
		C92.6,113.5,92.2,112.9,91.9,112.4z"/>
	<path class="st9" d="M86.9,106.3L86.9,106.3L86.9,106.3z"/>
	<path class="st10" d="M2.4,169.3c1,0.7,2.5,1.7,2.7,1.8c1.4,0.7,3.1,0.6,4.7,0.8c3.3,0.4,6-0.5,8.7-2.3
		c7.9-5.1,14.7-11.6,21.7-17.9c7.4-6.6,14.6-13.42,22.1-19.82c0.3-0.3,0.68-0.59,0.98-0.89c3.5-3,7.22-5.89,10.72-8.89
		c0.4,0.8,0.2,2.3-0.3,3.1s-1.3,1.4-2,1.9c-14.9,11.6-28.2,25-42.6,37.1c-3.2,2.7-6.5,5.2-10.1,7.3c-2.73,1.6-5.85,2.53-9.02,2.53
		c-1.12,0-2.23-0.13-3.31-0.43c-1.48-0.41-2.77-1.12-3.95-2.1c-0.22-0.18-0.43-0.37-0.64-0.57c-0.94-0.94-1.39-2.06-1.75-3.31
		c-0.15-0.51-0.27-1.02-0.34-1.55c-0.04-0.32-0.11-0.72,0.02-1.02C0.31,165.15,2.1,169.1,2.4,169.3z"/>
	<path class="st11" d="M57.2,112.6c5.6,3.2,11.2,6.3,16.8,9.5c-0.1,0.7-0.7,1.1-1.2,1.5c-9,7.6-18.2,15.4-27.1,23.3
		c-4.6,4-9.1,8.1-13.5,12.2c-4.1,3.8-8.2,7.9-13.1,10.8c-5.5,3.2-12,3.6-17.1-0.7c-2.1-1.8-2.6-4.5-1.2-6.8c0.8-1.4,2.1-2.4,3.4-3.4
		c15.3-12.4,29.6-26.1,44.3-39.1c1.5-1.3,3-2.7,4.5-4C53.8,115.1,55.9,112.4,57.2,112.6z"/>
</g>
</svg>
